<svg viewBox="0 0 309 86" xmlns="http://www.w3.org/2000/svg">
  <defs></defs>
  <polygon id="XMLID_1136_" style="fill: rgba(51, 51, 51, 0.88);" points="90.64 42.32 90.784 64.523 109.5 53.761 109.5 32.239"></polygon>
  <polygon id="XMLID_1137_" style="fill: rgba(51, 51, 51, 0.65);" points="90.784 40.193 90.784 64.523 72.069 53.761 72.069 32.239"></polygon>
  <polygon id="XMLID_1138_" style="fill: rgb(51, 51, 51);" points="72.068 32.239 78.611 36 91.006 32.358 97.326 25.238 90.784 21.477"></polygon>
  <polygon id="XMLID_1139_" style="fill: rgb(51, 51, 51);" points="84.243 39.239 90.784 43 109.499 32.239 102.958 28.477 90.471 32.171"></polygon>
  <polygon id="XMLID_1140_" style="fill: rgb(255, 117, 193);" points="84.243 48.596 78.611 45.358 78.611 36 84.039 36.424 84.243 39.239"></polygon>
  <polygon id="XMLID_1141_" style="fill: rgb(255, 82, 177);" points="78.611 36 97.326 25.238 102.958 28.477 84.243 39.239"></polygon>
  <path d="M 131.879 48.714 C 128.963 48.714 126.606 46.576 126.606 43.125 C 126.606 39.893 128.599 37.536 131.879 37.536 C 133.337 37.536 134.65 38.143 135.622 39.115 C 135.719 39.188 135.865 39.188 135.962 39.115 L 137.906 37.171 C 138.003 37.099 138.003 36.953 137.906 36.88 C 136.399 35.325 134.261 34.377 131.879 34.377 C 126.874 34.377 123.301 37.998 123.301 43.125 C 123.301 48.471 127.165 51.873 131.879 51.873 C 134.261 51.873 136.399 50.925 137.906 49.394 C 138.003 49.321 138.003 49.176 137.906 49.103 L 135.962 47.134 C 135.865 47.062 135.719 47.062 135.622 47.134 C 134.65 48.106 133.337 48.714 131.879 48.714 Z M 146.6 47.11 C 150.124 47.11 153.015 44.243 153.015 40.744 C 153.015 37.269 150.124 34.377 146.6 34.377 C 143.077 34.377 140.185 37.269 140.185 40.744 C 140.185 44.243 143.077 47.11 146.6 47.11 Z M 146.6 37.512 C 148.374 37.512 149.783 38.945 149.783 40.744 C 149.783 42.566 148.374 43.975 146.6 43.975 C 144.851 43.975 143.417 42.566 143.417 40.744 C 143.417 38.945 144.851 37.512 146.6 37.512 Z M 152.262 48.69 C 152.262 48.592 152.165 48.495 152.019 48.495 L 141.06 48.495 C 140.914 48.495 140.817 48.592 140.817 48.69 L 140.817 51.436 C 140.817 51.533 140.914 51.63 141.06 51.63 L 152.019 51.63 C 152.165 51.63 152.262 51.533 152.262 51.436 L 152.262 48.69 Z M 174.738 34.79 C 174.738 34.693 174.641 34.596 174.495 34.596 L 171.676 34.596 C 171.603 34.596 171.482 34.669 171.457 34.717 L 165.625 47.207 L 159.526 34.717 C 159.502 34.669 159.38 34.596 159.307 34.596 L 156.464 34.596 C 156.318 34.596 156.245 34.693 156.245 34.79 L 156.245 51.436 C 156.245 51.533 156.318 51.63 156.464 51.63 L 159.259 51.63 C 159.404 51.63 159.502 51.533 159.502 51.436 L 159.502 41.886 L 164.119 50.828 C 164.143 50.877 164.264 50.95 164.337 50.95 L 166.962 50.95 C 167.01 50.95 167.132 50.877 167.156 50.828 L 171.482 42.104 L 171.482 51.436 C 171.482 51.533 171.579 51.63 171.725 51.63 L 174.495 51.63 C 174.641 51.63 174.738 51.533 174.738 51.436 L 174.738 34.79 Z M 184.238 34.62 L 178.721 34.62 C 178.6 34.62 178.503 34.717 178.503 34.814 L 178.503 51.484 C 178.503 51.581 178.6 51.679 178.721 51.679 L 181.492 51.679 C 181.637 51.679 181.71 51.581 181.71 51.484 L 181.71 44.802 L 184.238 44.802 C 184.651 44.802 189.997 44.753 189.997 39.747 C 189.997 34.717 184.918 34.62 184.238 34.62 Z M 184.238 41.667 L 181.71 41.667 L 181.71 37.755 L 184.238 37.755 C 184.626 37.755 186.765 37.852 186.765 39.747 C 186.765 41.618 184.675 41.667 184.238 41.667 Z M 201.224 51.508 C 201.248 51.581 201.346 51.63 201.419 51.63 L 204.432 51.63 C 204.602 51.63 204.699 51.508 204.626 51.363 L 197.992 34.255 C 197.919 34.085 197.628 34.085 197.555 34.255 L 190.921 51.363 C 190.848 51.508 190.945 51.63 191.14 51.63 L 194.129 51.63 C 194.226 51.63 194.323 51.581 194.347 51.508 L 195.003 49.71 L 200.519 49.71 L 201.224 51.508 Z M 197.774 41.74 L 199.475 46.843 L 196.048 46.843 L 197.774 41.74 Z M 214.469 48.714 C 211.553 48.714 209.196 46.576 209.196 43.125 C 209.196 39.893 211.189 37.536 214.469 37.536 C 215.927 37.536 217.239 38.143 218.211 39.115 C 218.308 39.188 218.454 39.188 218.551 39.115 L 220.495 37.171 C 220.593 37.099 220.593 36.953 220.495 36.88 C 218.989 35.325 216.85 34.377 214.469 34.377 C 209.463 34.377 205.891 37.998 205.891 43.125 C 205.891 48.471 209.755 51.873 214.469 51.873 C 216.85 51.873 218.989 50.925 220.495 49.394 C 220.593 49.321 220.593 49.176 220.495 49.103 L 218.551 47.134 C 218.454 47.062 218.308 47.062 218.211 47.134 C 217.239 48.106 215.927 48.714 214.469 48.714 Z M 236.82 34.936 C 236.966 34.79 236.844 34.62 236.626 34.62 L 233.151 34.62 C 233.102 34.62 232.981 34.669 232.956 34.693 L 226.566 42.542 L 226.566 34.814 C 226.566 34.717 226.468 34.62 226.347 34.62 L 223.552 34.62 C 223.407 34.62 223.309 34.717 223.309 34.814 L 223.309 51.436 C 223.309 51.533 223.407 51.63 223.552 51.63 L 226.347 51.63 C 226.468 51.63 226.566 51.533 226.566 51.436 L 226.566 46.916 C 227.027 46.454 227.465 45.895 227.878 45.433 L 232.835 51.557 C 232.859 51.581 232.981 51.63 233.029 51.63 L 236.674 51.63 C 236.893 51.63 237.015 51.46 236.869 51.314 L 230.04 43.271 L 236.82 34.936 Z" style="white-space: pre; fill: rgb(51, 51, 51);"></path>
  <g transform="matrix(0.440367, 0, 0, 0.440367, 76.62059, 68.696503)" style=""></g>
  <g transform="matrix(0.440367, 0, 0, 0.440367, 76.62059, 68.696503)" style=""></g>
  <g transform="matrix(0.440367, 0, 0, 0.440367, 76.62059, 68.696503)" style=""></g>
  <g transform="matrix(0.440367, 0, 0, 0.440367, 76.62059, 68.696503)" style=""></g>
  <g transform="matrix(0.440367, 0, 0, 0.440367, 76.62059, 68.696503)" style=""></g>
  <g transform="matrix(0.440367, 0, 0, 0.440367, 76.62059, 68.696503)" style=""></g>
  <g transform="matrix(0.440367, 0, 0, 0.440367, 76.62059, 68.696503)" style=""></g>
  <g transform="matrix(0.440367, 0, 0, 0.440367, 76.62059, 68.696503)" style=""></g>
  <g transform="matrix(0.440367, 0, 0, 0.440367, 76.62059, 68.696503)" style=""></g>
  <g transform="matrix(0.440367, 0, 0, 0.440367, 76.62059, 68.696503)" style=""></g>
  <g transform="matrix(0.440367, 0, 0, 0.440367, 76.62059, 68.696503)" style=""></g>
  <g transform="matrix(0.440367, 0, 0, 0.440367, 76.62059, 68.696503)" style=""></g>
  <g transform="matrix(0.440367, 0, 0, 0.440367, 76.62059, 68.696503)" style=""></g>
  <g transform="matrix(0.440367, 0, 0, 0.440367, 76.62059, 68.696503)" style=""></g>
  <g transform="matrix(0.440367, 0, 0, 0.440367, 76.62059, 68.696503)" style=""></g>
</svg>